# xmcd
#
# Track frame offsets:
#	150
#	12086
#	28512
#	43468
#	62585
#	78820
#	97225
#	116725
#	134113
#	148082
#	163751
#	181604
#	197575
#	218171
#	231985
#	248638
#	266388
#	284269
#	303692
#
# Disc length: 4310 seconds
#
# Revision: 1
# Processed by: cddbd v1.5.1PL2 Copyright (c) Steve Scherf et al.
# Submitted via: audiograbber 1.83.01
#
DISCID=1610d413
DTITLE=Yello. - 100% Hits. Yello. Vol 1.
DYEAR=1900
DGENRE=
TTITLE0=How How.
TTITLE1=Jungle Bell.
TTITLE2=The Race.
TTITLE3=Drive and Driven.
TTITLE4=Rubberbandman.
TTITLE5=Call It Love.
TTITLE6=Vicious Games.
TTITLE7=Of Course I'm Lying.
TTITLE8=Oh Yeah.
TTITLE9=Ocean Club.
TTITLE10=Tremendous Pain.
TTITLE11=Tied Up.
TTITLE12=Blender.
TTITLE13=I... I'm In Love.
TTITLE14=Desire.
TTITLE15=Blazing Saddles.
TTITLE16=Do It.
TTITLE17=Lost Again.
TTITLE18=The Rhythm Divine.
EXTD=
EXTT0=
EXTT1=
EXTT2=
EXTT3=
EXTT4=
EXTT5=
EXTT6=
EXTT7=
EXTT8=
EXTT9=
EXTT10=
EXTT11=
EXTT12=
EXTT13=
EXTT14=
EXTT15=
EXTT16=
EXTT17=
EXTT18=
PLAYORDER=
